PathFileType	4	(x/y/z)	S04_M20_T34.trc
DataRate	CameraRate	NumFrames	NumMarkers	Units	OrigDataRate	OrigDataStartFrame	OrigNumFrames
240	240	4	51	mm	240	201	535
Frame#	Time	Sternum			R.Acromium			L.Acromium			Top.Head			R.ASIS			L.ASIS			R.PSIS			L.PSIS			R.Great.Tro			L.Great.Tro			R.Iliac.Crest			L.Iliac.Crest			V.Sacral			R.Thigh.Upper.Post			R.Thigh.Lower.Ant			R.Thigh.Lower.Post			R.Thigh.Upper.Ant			R.Knee.Lat			R.Knee.Med			R.Shank.Upper.Post			R.Shank.Lower.Ant			R.Shank.Lower.Post			R.Shank.Upper.Ant			R.Ankle.Lat			R.Ankle.Med			R.Heel.Upper			R.Heel.Med			R.Heel.Lat			R.Toe.Lat			R.Toe.Med			R.Toe.Tip			L.Thigh.Upper.Post			L.Thigh.Lower.Ant			L.Thigh.Lower.Post			L.Thigh.Upper.Ant			L.Knee.Lat			L.Knee.Med			L.Shank.Upper.Post			L.Shank.Lower.Ant			L.Shank.Lower.Post			L.Shank.Upper.Ant			L.Ankle.Lat			L.Ankle.Med			L.Heel.Upper			L.Heel.Med			L.Heel.Lat			L.Toe.Lat			L.Toe.Med			L.Toe.Tip			Cervical.Spine			Back			
		X1	Y1	Z1	X2	Y2	Z2	X3	Y3	Z3	X4	Y4	Z4	X5	Y5	Z5	X6	Y6	Z6	X7	Y7	Z7	X8	Y8	Z8	X9	Y9	Z9	X10	Y10	Z10	X11	Y11	Z11	X12	Y12	Z12	X13	Y13	Z13	X14	Y14	Z14	X15	Y15	Z15	X16	Y16	Z16	X17	Y17	Z17	X18	Y18	Z18	X19	Y19	Z19	X20	Y20	Z20	X21	Y21	Z21	X22	Y22	Z22	X23	Y23	Z23	X24	Y24	Z24	X25	Y25	Z25	X26	Y26	Z26	X27	Y27	Z27	X28	Y28	Z28	X29	Y29	Z29	X30	Y30	Z30	X31	Y31	Z31	X32	Y32	Z32	X33	Y33	Z33	X34	Y34	Z34	X35	Y35	Z35	X36	Y36	Z36	X37	Y37	Z37	X38	Y38	Z38	X39	Y39	Z39	X40	Y40	Z40	X41	Y41	Z41	X42	Y42	Z42	X43	Y43	Z43	X44	Y44	Z44	X45	Y45	Z45	X46	Y46	Z46	X47	Y47	Z47	X48	Y48	Z48	X49	Y49	Z49	X50	Y50	Z50	X51	Y51	Z51	

201	0.83333	277.91	1228.9	294.33	166.3	1453.8	489.22	114.08	1440	141.63	162.89	1782.8	306.42	295.16	956.02	410.7	226.98	954.21	165.2	62.097	990.44	374.63	49.967	993.51	295.08	235.75	887.06	502.23	80.716	887.98	143.58	213.87	1037.7	481.64	126.99	1042.3	147.31	34.948	950.51	340.43	326.57	643.62	482.31	421.52	600.63	430.61	362.2	561.84	462.06	387.02	703.26	456.24	412.42	514.88	447.41	364.52	491.25	324.1	406.97	276.72	460.63	483.39	218.61	406.96	424	209.28	446.79	465.74	286.32	429.25	461.34	101.27	426.11	467.84	119.14	333.74	405.06	64.195	371.9	417.02	35.613	341.03	414.97	32.151	405.67	583.81	68.508	440.71	607.03	82.239	323.91	663.85	122.09	367.13	-5.4876	682.88	158.69	36.607	565.62	137.26	-24.68	595.46	163.78	50.51	654.89	129.26	-28.861	495.01	152.78	-2.0005	465.48	274.18	-206.25	405.71	174.37	-207.49	294.71	168.06	-249.23	341.77	183.5	-164.59	357.85	159.09	-317.36	182.74	195.34	-298.56	190.12	285.92	-388.07	214.4	249.43	-396.78	193.35	285.18	-406.78	191.26	223.79	-289.81	58.609	174.74	-249.76	47.449	286.24	-208.27	37.515	237.01	93.388	1500.1	325.95	16.256	1240.1	314.54
202	0.8375	284.39	1229.6	295.24	171.87	1454.4	489.94	120.58	1440.6	142.21	168.57	1783.4	307.22	301.52	956.99	411.68	233.88	954.26	166.1	68.394	991.08	374.98	56.46	993.83	295.36	241.97	888.12	503.05	87.752	887.6	144.25	219.98	1038.5	482.29	134.22	1042.6	147.83	41.362	951	340.85	333.03	644.38	482.7	427.75	601.27	430.69	368.45	562.56	462.27	393.54	703.93	456.59	418.53	515.38	447.3	370.2	492.15	324.28	410.98	277.27	461	486.36	218.23	406.83	427.16	209.63	447.15	469.6	286.17	429.13	462.87	101.12	426.33	469.28	118.94	333.92	405.85	64.781	372.23	417.38	36.105	341.25	415.38	32.475	405.87	584.98	66.667	440.44	608.02	80.207	323.56	665.59	119.18	366.65	2.4851	681.71	158.84	45.297	564.83	136.76	-16.083	594.15	163.64	58.616	654.21	129.19	-19.83	494.08	152.09	7.4401	463.9	273.25	-197.98	407.17	174.23	-200.85	296.26	167.49	-241.78	343.83	183.37	-157.09	358.8	158.56	-312.24	185.66	194.8	-292.69	192.68	285.29	-381.45	219.44	249.17	-390.56	198.86	285.09	-401.02	196.75	223.8	-288.36	60.425	174.83	-247.86	48.74	286.06	-207.38	37.144	236.7	99.323	1500.6	326.5	22.676	1240.5	314.72
203	0.84167	290.83	1230.4	296.15	177.42	1455	490.63	127.09	1441.3	142.77	174.22	1784	308.02	307.83	957.97	412.65	240.7	954.39	167.01	74.638	991.76	375.36	62.886	994.19	295.68	248.15	889.18	503.85	94.72	887.25	144.93	226.04	1039.2	482.94	141.32	1043	148.39	47.716	951.52	341.3	339.39	645.13	483.09	433.86	601.89	430.74	374.59	563.26	462.47	399.95	704.59	456.88	424.51	515.85	447.18	375.73	493.03	324.43	414.86	277.81	461.35	489.22	217.86	406.7	430.22	209.97	447.48	473.33	286.01	429.01	464.32	101.01	426.53	470.63	118.78	334.09	406.6	65.328	372.55	417.72	36.578	341.48	415.78	32.788	406.06	586.06	64.937	440.17	608.91	78.285	323.21	667.2	116.41	366.15	10.516	680.51	158.98	54.101	564.03	136.25	-7.3855	592.8	163.47	66.789	653.54	129.11	-10.617	493.13	151.39	17.075	462.29	272.32	-189.46	408.63	174.1	-193.99	297.85	166.93	-234.1	345.91	183.24	-149.37	359.75	158.01	-306.9	188.68	194.28	-286.6	195.31	284.67	-374.56	224.56	248.91	-384.05	204.45	285.01	-394.98	202.33	223.81	-286.74	62.43	174.91	-245.76	50.183	285.84	-206.33	36.782	236.32	105.24	1501.1	327.04	29.045	1240.9	314.87
204	0.84583	297.21	1231.2	297.06	182.93	1455.7	491.29	133.6	1442	143.3	179.85	1784.6	308.82	314.08	958.97	413.6	247.44	954.58	167.92	80.831	992.47	375.76	69.245	994.6	296.02	254.29	890.22	504.62	101.61	886.96	145.64	232.05	1040.1	483.58	148.3	1043.4	149	54.009	952.09	341.77	345.65	645.86	483.47	439.84	602.47	430.75	380.59	563.93	462.66	406.26	705.22	457.12	430.33	516.27	447.06	381.11	493.86	324.56	418.62	278.32	461.68	491.96	217.51	406.56	433.17	210.31	447.8	476.93	285.86	428.88	465.69	100.92	426.73	471.91	118.63	334.25	407.3	65.837	372.86	418.04	37.027	341.7	416.16	33.089	406.25	587.07	63.315	439.9	609.73	76.463	322.86	668.68	113.77	365.64	18.601	679.28	159.11	63.01	563.24	135.73	1.4079	591.42	163.29	75.025	652.86	129.02	-1.2276	492.16	150.67	26.895	460.66	271.38	-180.71	410.09	173.96	-186.91	299.46	166.37	-226.19	348	183.13	-141.42	360.72	157.47	-301.32	191.8	193.76	-280.29	198	284.07	-367.38	229.72	248.66	-377.24	210.1	284.92	-388.64	208.01	223.82	-284.9	64.63	174.98	-243.43	51.779	285.6	-205.11	36.443	235.88	111.13	1501.6	327.54	35.36	1241.3	315.01
